#!OML:ASF I:\Actors\actors\Patient Classification 1\Patient 1\Session 1\Subject1.ASF
:FULLY-SPECIFIED
:DEGREES
559
root -0.149052 17.61 7.79762 8.34213 -0.943135 -9.8488
lowerback 1.8853 1.81191 5.10979
upperback -0.368473 2.56538 1.97432
thorax -1.3033 1.24866 -0.904711
lowerneck -3.10683 -6.05278 -3.34226
upperneck 14.7046 -9.27934 9.27289
head 5.52403 -4.15114 2.88707
rclavicle 3.10601e-014 2.22639e-014
rhumerus 16.5109 53.5328 -78.8705
rradius 135.393
rwrist -9.7341
rhand -49.6878 -83.6521
rfingers 7.12502
rthumb -22.2894 -247.613
lclavicle 3.10601e-014 2.22639e-014
lhumerus 8.92113 -59.6988 83.948
lradius 131.394
lwrist 25.2269
lhand -53.6537 -82.1588
lfingers 7.12502
lthumb -26.0918 -53.931
rfemur -8.0548 17.4759 25.9913
rtibia 7.42511
rfoot -12.5316 -19.4024
rtoes 0.338804
lfemur 0.122932 -39.8021 -6.25808
ltibia -2.41541
lfoot -20.7321 49.59
ltoes 10.5706
560
root -0.151877 17.6113 7.80414 8.35194 -0.627612 -9.80916
lowerback 1.88024 1.79976 5.04956
upperback -0.498773 2.55295 1.91737
thorax -1.43525 1.2382 -0.931906
lowerneck -3.11433 -5.91765 -3.37264
upperneck 14.3823 -9.06671 9.2993
head 5.41318 -4.05695 2.91658
rclavicle -1.51076e-014 -1.59028e-014
rhumerus 17.1446 54.2467 -78.0506
rradius 133.134
rwrist -7.59582
rhand -55.0552 -87.8848
rfingers 7.12502
rthumb -27.433 -244.093
lclavicle -1.51076e-014 -1.59028e-014
lhumerus 8.8048 -59.9297 83.1608
lradius 130.176
lwrist 20.8828
lhand -52.378 92.4282
lfingers 7.12502
lthumb -24.8698 -64.0259
rfemur -7.94304 17.3809 25.9748
rtibia 7.26195
rfoot -12.5876 -19.6275
rtoes 0.378265
lfemur -0.0497329 -39.7386 -6.15596
ltibia -2.4243
lfoot -20.1428 49.3419
ltoes 9.71049
561
root -0.156744 17.6119 7.80853 8.3222 -0.41287 -9.73443
lowerback 2.20445 1.90385 5.10027
upperback -0.792211 2.72567 1.70408
thorax -1.89805 1.30836 -1.20199
lowerneck -3.06119 -5.85032 -3.17505
upperneck 14.1041 -8.95734 9.24694
head 5.29976 -4.00625 2.87893
rclavicle -8.05078e-015 -1.11319e-014
rhumerus 17.622 54.5866 -77.3543
rradius 130.239
rwrist -5.28008
rhand -60.3389 -261.217
rfingers 7.12502
rthumb -32.4744 -234.108
lclavicle -8.05078e-015 -1.11319e-014
lhumerus 8.50258 -60.1627 82.5516
lradius 128.271
lwrist 16.6001
lhand -49.6497 102.605
lfingers 7.12502
lthumb -22.2529 -73.8657
rfemur -7.81514 17.2891 25.9262
rtibia 7.12429
rfoot -12.596 -19.7527
rtoes 0.274797
lfemur -0.107384 -39.7244 -6.17118
ltibia -2.44879
lfoot -19.7291 49.1929
ltoes 9.10701
562
root -0.164088 17.6107 7.81088 8.25334 -0.277095 -9.74643
lowerback 1.97293 1.92074 4.87341
upperback -0.660007 2.72092 1.74168
thorax -1.64387 1.31642 -1.02556
lowerneck -3.46657 -5.61016 -2.99517
upperneck 13.8112 -8.59444 9.09536
head 5.24077 -3.82594 2.81631
rclavicle -7.55382e-015 -2.0276e-014
rhumerus 19.9054 55.1375 -75.0716
rradius 126.986
rwrist -2.93694
rhand -63.0215 -243.875
rfingers 7.12502
rthumb -35.0234 -217.324
lclavicle -7.55382e-015 -2.0276e-014
lhumerus 9.2651 -59.6868 81.2581
lradius 125.89
lwrist 12.9875
lhand -47.7119 110.857
lfingers 7.12502
lthumb -20.3915 -81.9078
rfemur -7.66436 17.2216 26.0001
rtibia 7.0122
rfoot -12.6051 -19.8202
rtoes 0.456848
lfemur -0.0927208 -39.6318 -6.12164
ltibia -2.4661
lfoot -19.3539 49.0373
ltoes 8.63284
563
root -0.172715 17.6089 7.81116 8.13985 -0.162148 -9.8593
lowerback 2.01423 1.93869 4.83535
upperback -0.698548 2.74857 1.7494
thorax -1.70742 1.32885 -0.999763
lowerneck -3.55053 -5.2618 -2.60077
upperneck 13.3627 -8.06495 8.75772
head 5.05391 -3.57852 2.68261
rclavicle 1.92821e-014 -6.75868e-015
rhumerus 21.7468 54.9981 -73.5459
rradius 124.035
rwrist -5.20848
rhand -65.4261 -221.906
rfingers 7.12502
rthumb -37.3006 -195.92
lclavicle 1.92821e-014 -6.75868e-015
lhumerus 9.19718 -58.5955 80.9633
lradius 123.555
lwrist 10.9402
lhand -46.5371 116.864
lfingers 7.12502
lthumb -19.2622 -87.7975
rfemur -7.47367 17.1624 26.2135
rtibia 6.91492
rfoot -12.6451 -19.8519
rtoes 0.547593
lfemur -0.0547029 -39.4232 -5.96749
ltibia -2.43695
lfoot -19.1645 48.7511
ltoes 8.56939
564
root -0.183696 17.6078 7.80982 8.01254 -0.0381021 -10.015
lowerback 2.55571 2.2278 5.23819
upperback -1.09234 3.19291 1.37097
thorax -2.35243 1.52188 -1.65815
lowerneck -3.84165 -5.1585 -2.3424
upperneck 13.6733 -8.02654 9.14487
head 5.2033 -3.506 2.75405
rclavicle -1.03368e-014 3.97569e-015
rhumerus 22.1464 53.8756 -73.4687
rradius 121.865
rwrist -11.2237
rhand -65.8501 -194.387
rfingers 7.12502
rthumb -37.7014 -168.507
lclavicle -1.03368e-014 3.97569e-015
lhumerus 8.73101 -57.5213 81.441
lradius 121.437
lwrist 11.8601
lhand -44.4467 119.452
lfingers 7.12502
lthumb -17.2512 90.1981
rfemur -7.26281 17.1042 26.4867
rtibia 6.80764
rfoot -12.7088 -19.8736
rtoes 0.675816
lfemur -0.0464055 -39.1311 -5.73831
ltibia -2.36822
lfoot -19.128 48.3547
ltoes 8.88957
565
root -0.19829 17.607 7.80856 7.88019 0.0992975 -10.0768
lowerback 2.6715 2.54222 5.34231
upperback -1.23521 3.62101 1.00227
thorax -2.50714 1.72441 -2.11986
lowerneck -4.22535 -5.06682 -1.83263
upperneck 13.7116 -7.98663 9.39286
head 5.27048 -3.43276 2.7405
rclavicle 2.16675e-014 3.18055e-014
rhumerus 23.1036 52.0395 -73.0666
rradius 120.506
rwrist -22.9721
rhand -62.813 -161.077
rfingers 7.12502
rthumb -34.8255 -134.48
lclavicle 2.16675e-014 3.18055e-014
lhumerus 9.21601 -56.1622 81.5964
lradius 118.958
lwrist 13.613
lhand -45.6124 121.807
lfingers 7.12502
lthumb -18.3729 92.6542
rfemur -7.03874 16.9819 26.6571
rtibia 6.68808
rfoot -12.774 -19.8579
rtoes 0.893609
lfemur -0.050463 -38.839 -5.61538
ltibia -2.28176
lfoot -18.7264 48.0024
ltoes 8.54273
566
root -0.214975 17.6073 7.80826 7.75727 0.287885 -10.101
lowerback 2.47493 2.73956 5.14349
upperback -1.189 3.85635 0.771723
thorax -2.32779 1.84899 -2.24239
lowerneck -4.79973 -4.89061 -1.64198
upperneck 13.8621 -7.85159 9.85479
head 5.42028 -3.30535 2.84777
rclavicle -5.14852e-014 2.94201e-014
rhumerus 25.8238 52.6716 -70.3255
rradius 117.428
rwrist -18.8992
rhand -62.0731 -168.704
rfingers 7.12502
rthumb -34.1231 -141.948
lclavicle -5.14852e-014 2.94201e-014
lhumerus 9.97654 -53.6717 81.9906
lradius 117.376
lwrist 20.7645
lhand -43.6103 118.272
lfingers 7.12502
lthumb -16.446 271.051
rfemur -6.8439 16.8202 26.7822
rtibia 6.59478
rfoot -12.8451 -19.8483
rtoes 1.01411
lfemur -0.128079 -38.5225 -5.50109
ltibia -2.15958
lfoot -17.8967 47.6609
ltoes 7.30097
567
root -0.230983 17.6095 7.81068 7.68159 0.571477 -10.2337
lowerback 2.5951 2.88885 5.00232
upperback -1.4093 4.06247 0.604974
thorax -2.60504 1.94203 -2.35692
lowerneck -5.17512 -4.7224 -1.44711
upperneck 14.0863 -7.71093 10.1439
head 5.5514 -3.18756 2.90727
rclavicle 2.88238e-014 1.59028e-015
rhumerus 27.7822 52.306 -68.5204
rradius 114.867
rwrist -22.4046
rhand -59.9128 -160.101
rfingers 7.12502
rthumb -32.0688 -132.909
lclavicle 2.88238e-014 1.59028e-015
lhumerus 9.93059 -50.833 83.3128
lradius 116.245
lwrist 30.7643
lhand -43.2977 114.27
lfingers 7.12502
lthumb -16.145 275.078
rfemur -6.69638 16.6778 27.0238
rtibia 6.49907
rfoot -12.9073 -19.925
rtoes 1.33801
lfemur -0.319134 -38.2379 -5.18951
ltibia -2.01172
lfoot -17.1764 47.2611
ltoes 6.17483
568
root -0.243714 17.6119 7.81572 7.63101 0.930856 -10.4333
lowerback 2.87171 3.07634 4.99412
upperback -1.75769 4.33836 0.453046
thorax -3.08982 2.05947 -2.54891
lowerneck -5.603 -4.65699 -1.41875
upperneck 14.4784 -7.71376 10.4284
head 5.75911 -3.13872 2.98209
rclavicle -9.44227e-015 -7.95139e-016
rhumerus 29.7591 51.6646 -66.4613
rradius 111.846
rwrist -25.2903
rhand -57.8569 -152.392
rfingers 7.12502
rthumb -30.1094 -124.824
lclavicle -9.44227e-015 -7.95139e-016
lhumerus 9.56627 -48.163 84.9825
lradius 115.979
lwrist 40.8923
lhand -45.8474 110.044
lfingers 7.12502
lthumb -18.5989 279.086
rfemur -6.58493 16.4695 27.3214
rtibia 6.42109
rfoot -12.9861 -19.9724
rtoes 2.05054
lfemur -0.525941 -38.1267 -4.79176
ltibia -1.88951
lfoot -16.8402 46.895
ltoes 5.66031
569
root -0.254072 17.6132 7.82024 7.58421 1.35105 -10.6493
lowerback 2.61366 3.20627 4.86708
upperback -1.70504 4.48989 0.480871
thorax -2.8894 2.14461 -2.43729
lowerneck -6.26616 -4.51875 -1.55216
upperneck 14.6143 -7.56408 10.6207
head 5.92035 -3.03235 3.06178
rclavicle -3.73715e-014 -1.98785e-014
rhumerus 33.3959 50.9234 -62.7199
rradius 108.46
rwrist -27.4284
rhand -56.1825 -145.838
rfingers 7.12502
rthumb -28.5107 -117.992
lclavicle -3.73715e-014 -1.98785e-014
lhumerus 9.85901 -45.1415 86.1237
lradius 116.615
lwrist 49.3266
lhand -49.9506 110.116
lfingers 7.12502
lthumb -22.5417 278.588
rfemur -6.51388 16.2575 27.6224
rtibia 6.38622
rfoot -13.0972 -20.053
rtoes 2.70017
lfemur -0.757363 -38.1358 -4.35585
ltibia -1.79958
lfoot -16.4855 46.6095
ltoes 5.13593
570
root -0.263923 17.6145 7.82246 7.52285 1.82641 -10.8453
lowerback 3.20321 3.6006 5.33804
upperback -2.18986 5.07504 -0.0221183
thorax -3.59743 2.39025 -3.30053
lowerneck -6.23568 -4.65801 -0.906461
upperneck 14.463 -7.82282 10.7021
head 5.86687 -3.12248 2.96153
rclavicle -7.63333e-014 -2.46493e-014
rhumerus 35.54 49.5034 -60.0514
rradius 105.011
rwrist -29.5621
rhand -55.3597 -138.754
rfingers 7.12502
rthumb -27.7242 -110.778
lclavicle -7.63333e-014 -2.46493e-014
lhumerus 9.03654 -43.1113 87.5635
lradius 117.864
lwrist 56.7434
lhand -54.9828 110.168
lfingers 7.12502
lthumb -27.3637 277.865
rfemur -6.43667 16.0941 27.9128
rtibia 6.33637
rfoot -13.1107 -20.2883
rtoes 2.53663
lfemur -1.03361 -38.1582 -3.91234
ltibia -1.70751
lfoot -15.9277 46.3204
ltoes 4.37819
571
root -0.271806 17.6157 7.82408 7.43699 2.31465 -11.0215
lowerback 3.56249 3.87661 5.59217
upperback -2.42439 5.4752 -0.373336
thorax -3.95172 2.56149 -3.86108
lowerneck -6.53411 -4.62389 -0.25592
upperneck 14.5135 -7.86727 10.7278
head 5.91762 -3.09295 2.85283
rclavicle 3.94588e-014 -6.36111e-015
rhumerus 38.8773 48.2661 -56.0279
rradius 102.056
rwrist -33.721
rhand -54.4308 -131.42
rfingers 7.12502
rthumb -26.8356 -103.304
lclavicle 3.94588e-014 -6.36111e-015
lhumerus 8.10524 -40.5671 88.7898
lradius 119.402
lwrist 62.2661
lhand -60.6344 112.387
lfingers 7.12502
lthumb -32.7556 274.665
rfemur -6.36681 15.9104 28.1792
rtibia 6.33421
rfoot -13.0423 -20.5397
rtoes 1.92373
lfemur -1.26959 -38.2128 -3.52363
ltibia -1.63455
lfoot -15.4955 46.0292
ltoes 3.85751
572
root -0.275843 17.616 7.82965 7.38161 2.74622 -11.1727
lowerback 3.63439 3.80867 5.5238
upperback -2.34695 5.38372 -0.341799
thorax -3.92982 2.52047 -3.78842
lowerneck -7.31053 -4.25188 -0.0623653
upperneck 14.624 -7.38979 10.5399
head 6.0464 -2.83335 2.78319
rclavicle -6.55989e-015 -1.90833e-014
rhumerus 43.8503 47.7076 -50.4803
rradius 100.681
rwrist -40.094
rhand -54.2615 -125.924
rfingers 7.12502
rthumb -26.6736 -97.7838
lclavicle -6.55989e-015 -1.90833e-014
lhumerus 7.16456 -37.071 89.6122
lradius 120.862
lwrist 65.8596
lhand -63.5923 116.58
lfingers 7.12502
lthumb -35.5646 450.158
rfemur -6.34462 15.7306 28.3753
rtibia 6.39071
rfoot -13.0882 -20.6349
rtoes 2.13907
lfemur -1.38216 -38.4815 -3.2592
ltibia -1.65473
lfoot -15.1936 46.014
ltoes 3.37712
573
root -0.278537 17.6169 7.84077 7.40801 3.11798 -11.2621
lowerback 3.62841 3.79265 5.48931
upperback -2.25344 5.35299 -0.436709
thorax -3.82579 2.51034 -3.86067
lowerneck -8.17593 -3.94098 0.140582
upperneck 14.7494 -7.04203 10.5815
head 6.21429 -2.6163 2.77564
rclavicle -3.22031e-014 9.54166e-015
rhumerus 48.0316 46.7193 -45.5837
rradius 101.074
rwrist -48.587
rhand -54.1495 -123.119
rfingers 7.12502
rthumb -26.5664 -94.9623
lclavicle -3.22031e-014 9.54166e-015
lhumerus 6.26295 -35.7816 89.7564
lradius 121.79
lwrist 63.5027
lhand -64.8833 126.958
lfingers 7.12502
lthumb -36.7872 460.839
rfemur -6.36325 15.6196 28.4786
rtibia 6.42593
rfoot -13.2203 -20.6893
rtoes 2.84738
lfemur -1.45743 -38.9457 -3.09626
ltibia -1.7374
lfoot -14.9418 46.2609
ltoes 2.74889
